<svg width="24" height="24" viewBox="0 0 24 24" fill="none" xmlns="http://www.w3.org/2000/svg">
<path d="M13.96 20.6436C14.0461 20.6858 14.1347 20.7236 14.2246 20.7588C14.1347 20.7236 14.0461 20.6858 13.96 20.6436ZM13.96 20.6436C13.8772 20.6029 13.7967 20.5585 13.7178 20.5117C13.7967 20.5585 13.8772 20.6029 13.96 20.6436ZM3 14C3 14.0766 3.00315 14.1524 3.00879 14.2275C3.00316 14.1524 3 14.0766 3 14ZM3 14C3 13.9118 3.00427 13.8245 3.01172 13.7383C3.00426 13.8245 3 13.9118 3 14ZM21 14C21 13.9117 20.9948 13.8245 20.9873 13.7383C20.9948 13.8246 21 13.9118 21 14ZM21 14C21 14.0766 20.9959 14.1524 20.9902 14.2275C20.9959 14.1524 21 14.0766 21 14ZM4.57227 7.36035C4.48997 7.40496 4.41043 7.45401 4.33301 7.50586C4.41043 7.45399 4.48997 7.40497 4.57227 7.36035ZM4.57227 7.36035C4.65 7.31821 4.72983 7.27942 4.81152 7.24414C4.72984 7.27941 4.65 7.31822 4.57227 7.36035ZM19.4277 7.36133C19.5096 7.40575 19.5889 7.45425 19.666 7.50586C19.5889 7.45427 19.5096 7.40574 19.4277 7.36133ZM19.4277 7.36133C19.3496 7.31896 19.2696 7.27957 19.1875 7.24414C19.2696 7.27957 19.3496 7.31897 19.4277 7.36133ZM13.0762 3.69727C13.0801 3.694 13.084 3.69074 13.0879 3.6875C13.084 3.69074 13.0801 3.694 13.0762 3.69727ZM13.0762 3.69727C13.0109 3.75185 12.9481 3.80925 12.8877 3.86914C12.9481 3.80929 13.0109 3.75185 13.0762 3.69727ZM13.3164 3.5166C13.3948 3.46329 13.4761 3.41396 13.5596 3.36816C13.4761 3.41396 13.3948 3.46333 13.3164 3.5166ZM13.3164 3.5166C13.2432 3.56637 13.1719 3.61889 13.1035 3.6748C13.1719 3.61893 13.2432 3.56636 13.3164 3.5166ZM8.73926 20.9902C8.72105 20.9915 8.70286 20.9932 8.68457 20.9941C8.70286 20.9932 8.72105 20.9915 8.73926 20.9902ZM15.3145 20.9941C15.2962 20.9932 15.278 20.9915 15.2598 20.9902C15.278 20.9915 15.2962 20.9932 15.3145 20.9941ZM9.1377 20.9404C9.04673 20.9572 8.95462 20.9699 8.86133 20.9795C8.95461 20.9699 9.04673 20.9572 9.1377 20.9404ZM15.1377 20.9795C15.0444 20.9699 14.9523 20.9572 14.8613 20.9404C14.9523 20.9572 15.0444 20.9699 15.1377 20.9795ZM9.44141 20.8701C9.34875 20.8959 9.25477 20.9183 9.15918 20.9365C9.25475 20.9183 9.34876 20.8959 9.44141 20.8701ZM14.8398 20.9365C14.7443 20.9183 14.6503 20.8959 14.5576 20.8701C14.6503 20.896 14.7443 20.9183 14.8398 20.9365ZM9.72949 20.7764C9.64028 20.8098 9.54954 20.84 9.45703 20.8662C9.54952 20.84 9.64029 20.8099 9.72949 20.7764ZM14.542 20.8662C14.4495 20.84 14.3587 20.8099 14.2695 20.7764C14.3587 20.8099 14.4495 20.8399 14.542 20.8662ZM10.0332 20.6455C9.94878 20.6867 9.86248 20.7243 9.77441 20.7588C9.86247 20.7243 9.94879 20.6867 10.0332 20.6455ZM10.5498 20.3359C10.4774 20.3884 10.4026 20.4375 10.3262 20.4844C10.4026 20.4375 10.4774 20.3884 10.5498 20.3359ZM13.6729 20.4844C13.5965 20.4375 13.5216 20.3884 13.4492 20.3359C13.5216 20.3884 13.5964 20.4375 13.6729 20.4844ZM10.7793 20.1543C10.7164 20.2084 10.6516 20.26 10.585 20.3096C10.6516 20.26 10.7164 20.2083 10.7793 20.1543ZM13.4141 20.3096C13.3475 20.26 13.2826 20.2084 13.2197 20.1543C13.2826 20.2083 13.3474 20.26 13.4141 20.3096ZM13.1885 20.1289C13.1223 20.0706 13.0597 20.0084 12.998 19.9453C13.0597 20.0084 13.1222 20.0706 13.1885 20.1289ZM10.9922 19.9551C10.9335 20.0147 10.8733 20.0727 10.8105 20.1279C10.8733 20.0727 10.9335 20.0146 10.9922 19.9551ZM11.2178 19.7031C11.1675 19.765 11.1148 19.8245 11.0605 19.8828C11.1148 19.8245 11.1676 19.765 11.2178 19.7031ZM12 17.8701L12.0352 18C12.1256 18.6321 12.3848 19.2097 12.7656 19.6855L12 18.7383L11.2334 19.6855C11.6144 19.2096 11.8744 18.6323 11.9648 18L12 17.8701ZM19.499 16.5986L18.998 16.8887L19 17.4678V17.5C19 17.2778 18.979 17.0602 18.9395 16.8496C19.151 16.7799 19.3513 16.6858 19.5391 16.5732C19.5255 16.5814 19.5127 16.5907 19.499 16.5986ZM4.45996 16.5732C4.64792 16.686 4.8487 16.7798 5.06055 16.8496C5.02099 17.0602 5 17.2778 5 17.5V17.4688L5.00195 16.8887L4.50098 16.5986C4.48705 16.5906 4.47374 16.5815 4.45996 16.5732ZM4.38867 16.5283C4.34865 16.5028 4.30919 16.4766 4.27051 16.4492C4.3092 16.4766 4.34865 16.5028 4.38867 16.5283ZM19.7285 16.4492C19.6898 16.4766 19.6504 16.5028 19.6104 16.5283C19.6504 16.5028 19.6898 16.4766 19.7285 16.4492ZM4.21387 16.4092C4.17083 16.3772 4.12911 16.3437 4.08789 16.3096C4.12911 16.3437 4.17083 16.3772 4.21387 16.4092ZM19.9111 16.3096C19.8699 16.3437 19.8282 16.3772 19.7852 16.4092C19.8282 16.3772 19.8699 16.3437 19.9111 16.3096ZM20.1152 16.126C20.0661 16.1749 20.0154 16.2221 19.9629 16.2676C20.0153 16.2221 20.0661 16.1749 20.1152 16.126ZM3.68066 15.9004C3.65227 15.8658 3.6245 15.8308 3.59766 15.7949C3.62449 15.8308 3.65229 15.8658 3.68066 15.9004ZM20.4014 15.7949C20.3746 15.8306 20.3476 15.866 20.3193 15.9004C20.3476 15.8659 20.3746 15.8306 20.4014 15.7949ZM3.56445 15.75C3.53175 15.7046 3.49989 15.6586 3.46973 15.6113C3.49988 15.6586 3.53177 15.7046 3.56445 15.75ZM20.5293 15.6113C20.4991 15.6586 20.4673 15.7046 20.4346 15.75C20.4673 15.7046 20.4991 15.6586 20.5293 15.6113ZM3.43848 15.5605C3.40963 15.5133 3.3827 15.4649 3.35645 15.416C3.3827 15.4649 3.40964 15.5133 3.43848 15.5605ZM20.6436 15.416C20.6172 15.4651 20.5895 15.5132 20.5605 15.5605C20.5895 15.5132 20.6172 15.4651 20.6436 15.416ZM3.32617 15.3613C3.30627 15.3223 3.28872 15.2822 3.27051 15.2422C3.28872 15.2822 3.30628 15.3223 3.32617 15.3613ZM20.7285 15.2422C20.7103 15.2822 20.6928 15.3223 20.6729 15.3613C20.6928 15.3223 20.7103 15.2822 20.7285 15.2422ZM3.19238 15.0547C3.18164 15.0261 3.17005 14.9978 3.16016 14.9688C3.17005 14.9978 3.18163 15.0261 3.19238 15.0547ZM20.8389 14.9688C20.829 14.9977 20.8183 15.0262 20.8076 15.0547C20.8183 15.0262 20.829 14.9977 20.8389 14.9688ZM3.13574 14.8896C3.12162 14.8441 3.10769 14.7984 3.0957 14.752C3.10769 14.7984 3.12161 14.8441 3.13574 14.8896ZM20.9033 14.752C20.8914 14.7983 20.8784 14.8442 20.8643 14.8896C20.8784 14.8442 20.8913 14.7983 20.9033 14.752ZM3.0791 14.6826C3.06777 14.6339 3.05775 14.5848 3.04883 14.5352C3.05776 14.5848 3.06776 14.6339 3.0791 14.6826ZM20.9502 14.5352C20.9413 14.5848 20.9313 14.6339 20.9199 14.6826C20.9313 14.6339 20.9413 14.5848 20.9502 14.5352ZM3.03418 14.4521C3.02536 14.3938 3.01907 14.3348 3.01367 14.2754C3.01908 14.3348 3.02535 14.3938 3.03418 14.4521ZM20.9863 14.2754C20.9809 14.3349 20.9737 14.3937 20.9648 14.4521C20.9737 14.3937 20.9809 14.3349 20.9863 14.2754ZM3.0166 13.6875C3.02503 13.606 3.03695 13.5256 3.05176 13.4463C3.03694 13.5257 3.02503 13.6061 3.0166 13.6875ZM20.9482 13.4463C20.963 13.5256 20.974 13.6061 20.9824 13.6875C20.974 13.6061 20.963 13.5256 20.9482 13.4463ZM3.05371 13.4297C3.06951 13.3476 3.08997 13.267 3.1123 13.1875C3.08997 13.2671 3.0695 13.3476 3.05371 13.4297ZM20.8857 13.1787C20.9091 13.261 20.929 13.3447 20.9453 13.4297C20.929 13.3447 20.9091 13.261 20.8857 13.1787ZM20.8027 12.9336C20.8291 13.0028 20.8537 13.0729 20.875 13.1445C20.8537 13.0729 20.8291 13.0028 20.8027 12.9336ZM3.12988 13.126C3.14971 13.0608 3.17223 12.9968 3.19629 12.9336C3.17223 12.9968 3.1497 13.0608 3.12988 13.126ZM3.20996 11.1016C3.30806 11.3498 3.43738 11.5822 3.59473 11.793L3.76367 12C3.52938 12.2618 3.34131 12.5653 3.20996 12.8975C3.26433 12.76 3.32819 12.6275 3.40137 12.501L3.69043 12L3.40137 11.499C3.32804 11.3722 3.26441 11.2393 3.20996 11.1016ZM20.7891 11.1016C20.7346 11.2392 20.6719 11.3723 20.5986 11.499L20.3096 12L20.5986 12.501C20.6718 12.6274 20.7347 12.7601 20.7891 12.8975C20.691 12.6496 20.5624 12.4174 20.4053 12.207L20.2363 12C20.4708 11.7381 20.6577 11.4339 20.7891 11.1016ZM3.19141 11.0527C3.16923 10.9936 3.14837 10.9339 3.12988 10.873C3.14836 10.9339 3.16924 10.9936 3.19141 11.0527ZM20.875 10.8545C20.8551 10.9216 20.833 10.9877 20.8086 11.0527C20.833 10.9877 20.8551 10.9216 20.875 10.8545ZM20.9453 10.5693C20.929 10.6544 20.9091 10.738 20.8857 10.8203C20.9091 10.738 20.929 10.6543 20.9453 10.5693ZM3.11035 10.8086C3.08843 10.7301 3.06927 10.6503 3.05371 10.5693C3.06927 10.6503 3.08842 10.7301 3.11035 10.8086ZM3.04688 10.5234C3.03458 10.4536 3.02397 10.383 3.0166 10.3115C3.02398 10.383 3.03457 10.4535 3.04688 10.5234ZM20.9824 10.3115C20.9751 10.383 20.9654 10.4536 20.9531 10.5234C20.9654 10.4536 20.975 10.383 20.9824 10.3115ZM3.01172 10.2607C3.00433 10.1748 3 10.0879 3 10C3 10.0879 3.00432 10.1748 3.01172 10.2607ZM21 10C21 10.0879 20.9947 10.1748 20.9873 10.2607C20.9947 10.1748 21 10.0879 21 10ZM3.00879 9.77441C3.01017 9.75583 3.01098 9.73724 3.0127 9.71875C3.01098 9.73724 3.01017 9.75583 3.00879 9.77441ZM20.9863 9.71875C20.988 9.73724 20.9889 9.75583 20.9902 9.77441C20.9889 9.75583 20.988 9.73724 20.9863 9.71875ZM3.08105 9.31641C3.09269 9.26654 3.10407 9.21685 3.11816 9.16797C3.10408 9.21685 3.09269 9.26653 3.08105 9.31641ZM20.8809 9.16797C20.895 9.21694 20.9073 9.26645 20.9189 9.31641C20.9073 9.26644 20.895 9.21694 20.8809 9.16797ZM3.15332 9.05469C3.16989 9.00476 3.18892 8.95595 3.20801 8.90723C3.18892 8.95595 3.16989 9.00476 3.15332 9.05469ZM20.792 8.90723C20.811 8.95586 20.8292 9.00486 20.8457 9.05469C20.8292 9.00486 20.811 8.95586 20.792 8.90723ZM3.24902 8.80273C3.27539 8.74223 3.3048 8.68336 3.33496 8.625C3.30479 8.68335 3.2754 8.74222 3.24902 8.80273ZM20.6641 8.625C20.6942 8.68337 20.7236 8.74221 20.75 8.80273C20.7236 8.74221 20.6942 8.68337 20.6641 8.625ZM3.40137 8.50391C3.4348 8.44595 3.46875 8.38844 3.50586 8.33301C3.46874 8.38844 3.43481 8.44595 3.40137 8.50391ZM20.4932 8.33301C20.5425 8.40671 20.589 8.48243 20.6318 8.56055C20.589 8.48243 20.5425 8.4067 20.4932 8.33301ZM3.54688 8.27539C3.58497 8.22128 3.62354 8.16761 3.66504 8.11621C3.62353 8.1676 3.58498 8.22129 3.54688 8.27539ZM20.334 8.11621C20.3755 8.16761 20.414 8.22128 20.4521 8.27539C20.414 8.22128 20.3755 8.1676 20.334 8.11621ZM3.72949 8.04102C3.76806 7.99633 3.8085 7.95346 3.84961 7.91113C3.8085 7.95345 3.76807 7.99634 3.72949 8.04102ZM20.1504 7.91113C20.1913 7.95331 20.2311 7.9965 20.2695 8.04102C20.2311 7.99651 20.1914 7.9533 20.1504 7.91113ZM6 6C6 6.35246 6.06122 6.69075 6.17285 7.00488C6.11567 7.00164 6.0578 7 6 7C5.70828 7 5.42681 7.04344 5.16016 7.12109C5.19035 7.11231 5.2204 7.1016 5.25098 7.09375L6.02637 6.89453L6.00098 6.09473C6 6.06332 6 6.03166 6 6ZM17.999 6.09473L17.9736 6.89453L18.749 7.09375C18.7793 7.10152 18.809 7.11241 18.8389 7.12109C18.5725 7.04361 18.2914 7 18 7C17.9422 7 17.8843 7.00164 17.8271 7.00488L17.9014 6.76465C17.9656 6.52046 18 6.26423 18 6C18 6.03249 18 6.06428 17.999 6.09473ZM3.91211 7.84766C3.95527 7.80576 3.99931 7.76485 4.04492 7.72559C3.9993 7.76483 3.95528 7.80577 3.91211 7.84766ZM19.9541 7.72559C19.9997 7.76485 20.0437 7.80576 20.0869 7.84766C20.0437 7.80577 19.9997 7.76483 19.9541 7.72559ZM4.12109 7.66211C4.17256 7.62067 4.22609 7.58197 4.28027 7.54395C4.22609 7.58195 4.17257 7.62069 4.12109 7.66211ZM19.7197 7.54395C19.7737 7.58182 19.8266 7.62085 19.8779 7.66211C19.8266 7.62086 19.7737 7.58181 19.7197 7.54395ZM4.88965 7.21387C4.94909 7.19016 5.00906 7.1674 5.07031 7.14746C5.00907 7.16741 4.94909 7.19016 4.88965 7.21387ZM18.9287 7.14746C18.99 7.16738 19.0499 7.19017 19.1094 7.21387C19.0499 7.19017 18.99 7.16739 18.9287 7.14746ZM12.874 3.88379C12.334 4.42629 12 5.17406 12 6C12 5.17381 11.6653 4.42633 11.125 3.88379C11.1677 3.9267 11.2099 3.97019 11.25 4.01562L12 4.86523L12.75 4.01562C12.79 3.97036 12.8315 3.92655 12.874 3.88379ZM10.9111 3.6875C10.9806 3.74499 11.0473 3.80567 11.1113 3.86914C11.0473 3.80571 10.9806 3.74499 10.9111 3.6875ZM10.1885 3.24512C10.2684 3.27965 10.3467 3.31727 10.4229 3.3584C10.3467 3.31729 10.2684 3.27965 10.1885 3.24512ZM13.5762 3.3584C13.6523 3.31725 13.7306 3.27967 13.8105 3.24512C13.7306 3.27967 13.6523 3.31727 13.5762 3.3584ZM9.91699 3.14355C9.99424 3.16831 10.0702 3.19584 10.1445 3.22656C10.0702 3.19584 9.99423 3.16833 9.91699 3.14355ZM13.8545 3.22656C13.9289 3.19582 14.0048 3.16834 14.082 3.14355C14.0048 3.16835 13.9288 3.19582 13.8545 3.22656ZM9.62598 3.06543C9.70835 3.08289 9.78942 3.10386 9.86914 3.12793C9.78943 3.10384 9.70834 3.08291 9.62598 3.06543ZM14.1299 3.12793C14.2096 3.10383 14.2907 3.08291 14.373 3.06543C14.2907 3.08294 14.2096 3.10382 14.1299 3.12793ZM9.47754 3.03711C9.49421 3.03977 9.51077 3.04296 9.52734 3.0459C9.51077 3.04296 9.49421 3.03977 9.47754 3.03711ZM14.4717 3.0459C14.4883 3.04296 14.5048 3.03978 14.5215 3.03711C14.5048 3.03978 14.4883 3.04295 14.4717 3.0459ZM9.30762 3.01562C9.33868 3.01878 9.36962 3.02227 9.40039 3.02637C9.36962 3.02226 9.33868 3.01879 9.30762 3.01562ZM14.5986 3.02637C14.6294 3.02226 14.6603 3.01879 14.6914 3.01562C14.6603 3.0188 14.6294 3.02225 14.5986 3.02637ZM10.2812 20.5117C10.2023 20.5585 10.1218 20.603 10.0391 20.6436C10.1218 20.603 10.2023 20.5585 10.2812 20.5117ZM12.9434 19.8877C12.8877 19.828 12.8328 19.7676 12.7812 19.7041C12.8328 19.7676 12.8876 19.828 12.9434 19.8877ZM3.86426 16.1064C3.82153 16.0632 3.78027 16.0185 3.74023 15.9727C3.78026 16.0185 3.82155 16.0631 3.86426 16.1064ZM20.2588 15.9727C20.2171 16.0204 20.1745 16.0673 20.1299 16.1123C20.1745 16.0673 20.2171 16.0204 20.2588 15.9727ZM10.6826 3.5166C10.7559 3.56636 10.827 3.61889 10.8955 3.6748C10.8271 3.61894 10.7559 3.56635 10.6826 3.5166Z" stroke="black" stroke-width="2"/>
</svg>
