<svg width="24" height="24" viewBox="0 0 24 24" fill="none" xmlns="http://www.w3.org/2000/svg">
<mask id="path-1-inside-1_590_297" fill="white">
<path d="M12 2.25C10.0716 2.25 8.18657 2.82183 6.58319 3.89317C4.97982 4.96452 3.73013 6.48726 2.99218 8.26884C2.25422 10.0504 2.06114 12.0108 2.43735 13.9021C2.81355 15.7934 3.74215 17.5307 5.10571 18.8943C6.46928 20.2579 8.20656 21.1865 10.0979 21.5627C11.9892 21.9389 13.9496 21.7458 15.7312 21.0078C17.5127 20.2699 19.0355 19.0202 20.1068 17.4168C21.1782 15.8134 21.75 13.9284 21.75 12C21.7473 9.41498 20.7192 6.93661 18.8913 5.10872C17.0634 3.28084 14.585 2.25273 12 2.25ZM12.75 3.78469C13.2577 3.83102 13.76 3.92519 14.25 4.06594V19.9378C13.76 20.0786 13.2577 20.1727 12.75 20.2191V3.78469ZM15.75 4.65281C16.2845 4.92649 16.7875 5.25784 17.25 5.64094V18.3591C16.7875 18.7422 16.2845 19.0735 15.75 19.3472V4.65281ZM3.75 12C3.75248 9.94257 4.52267 7.96011 5.90984 6.44064C7.29701 4.92117 9.2013 3.97406 11.25 3.78469V20.2153C9.2013 20.0259 7.29701 19.0788 5.90984 17.5594C4.52267 16.0399 3.75248 14.0574 3.75 12ZM18.75 16.7381V7.26187C19.7262 8.64902 20.25 10.3038 20.25 12C20.25 13.6962 19.7262 15.351 18.75 16.7381Z"/>
</mask>
<path d="M12 2.25L12.0021 0.25H12V2.25ZM21.75 12H23.75L23.75 11.9979L21.75 12ZM12.75 3.78469L12.9318 1.79296L10.75 1.59387V3.78469H12.75ZM14.25 4.06594H16.25V2.55952L14.8021 2.14366L14.25 4.06594ZM14.25 19.9378L14.8021 21.8601L16.25 21.4442V19.9378H14.25ZM12.75 20.2191H10.75V22.4099L12.9318 22.2108L12.75 20.2191ZM15.75 4.65281L16.6615 2.87257L13.75 1.38196V4.65281H15.75ZM17.25 5.64094H19.25V4.70062L18.5259 4.10076L17.25 5.64094ZM17.25 18.3591L18.5259 19.8992L19.25 19.2994V18.3591H17.25ZM15.75 19.3472H13.75V22.618L16.6615 21.1274L15.75 19.3472ZM3.75 12L1.75 11.9976L1.75001 12.0024L3.75 12ZM11.25 3.78469H13.25V1.59129L11.0659 1.79318L11.25 3.78469ZM11.25 20.2153L11.0659 22.2068L13.25 22.4087V20.2153H11.25ZM18.75 16.7381H16.75V23.0555L20.3856 17.8891L18.75 16.7381ZM18.75 7.26188L20.3856 6.11088L16.75 0.944517V7.26188H18.75ZM12 2.25V0.25C9.67607 0.25 7.40433 0.939126 5.47205 2.23023L6.58319 3.89317L7.69433 5.55611C8.96882 4.70453 10.4672 4.25 12 4.25V2.25ZM6.58319 3.89317L5.47205 2.23023C3.53978 3.52134 2.03375 5.35644 1.14442 7.50347L2.99218 8.26884L4.83994 9.0342C5.42652 7.61808 6.41985 6.40769 7.69433 5.55611L6.58319 3.89317ZM2.99218 8.26884L1.14442 7.50347C0.25509 9.6505 0.0224011 12.013 0.475777 14.2923L2.43735 13.9021L4.39892 13.512C4.09988 12.0086 4.25336 10.4503 4.83994 9.0342L2.99218 8.26884ZM2.43735 13.9021L0.475777 14.2923C0.929154 16.5716 2.04823 18.6652 3.6915 20.3085L5.10571 18.8943L6.51993 17.4801C5.43607 16.3962 4.69795 15.0153 4.39892 13.512L2.43735 13.9021ZM5.10571 18.8943L3.6915 20.3085C5.33477 21.9518 7.42842 23.0709 9.70769 23.5242L10.0979 21.5627L10.4881 19.6011C8.9847 19.302 7.60378 18.5639 6.51993 17.4801L5.10571 18.8943ZM10.0979 21.5627L9.70769 23.5242C11.987 23.9776 14.3495 23.7449 16.4965 22.8556L15.7312 21.0078L14.9658 19.1601C13.5497 19.7466 11.9914 19.9001 10.4881 19.6011L10.0979 21.5627ZM15.7312 21.0078L16.4965 22.8556C18.6436 21.9663 20.4787 20.4602 21.7698 18.528L20.1068 17.4168L18.4439 16.3057C17.5923 17.5801 16.3819 18.5735 14.9658 19.1601L15.7312 21.0078ZM20.1068 17.4168L21.7698 18.528C23.0609 16.5957 23.75 14.3239 23.75 12H21.75H19.75C19.75 13.5328 19.2955 15.0312 18.4439 16.3057L20.1068 17.4168ZM21.75 12L23.75 11.9979C23.7467 8.88316 22.5079 5.89695 20.3055 3.69451L18.8913 5.10872L17.4771 6.52294C18.9304 7.97627 19.7478 9.94679 19.75 12.0021L21.75 12ZM18.8913 5.10872L20.3055 3.69451C18.1031 1.49207 15.1168 0.25329 12.0021 0.250001L12 2.25L11.9979 4.25C14.0532 4.25217 16.0237 5.0696 17.4771 6.52294L18.8913 5.10872ZM12.75 3.78469L12.5683 5.77641C12.9506 5.8113 13.3288 5.88222 13.6979 5.98822L14.25 4.06594L14.8021 2.14366C14.1911 1.96816 13.5649 1.85074 12.9318 1.79296L12.75 3.78469ZM14.25 4.06594H12.25V19.9378H14.25H16.25V4.06594H14.25ZM14.25 19.9378L13.6979 18.0155C13.3288 18.1215 12.9506 18.1924 12.5683 18.2273L12.75 20.2191L12.9318 22.2108C13.5649 22.153 14.1911 22.0356 14.8021 21.8601L14.25 19.9378ZM12.75 20.2191H14.75V3.78469H12.75H10.75V20.2191H12.75ZM15.75 4.65281L14.8386 6.43305C15.2432 6.64024 15.624 6.89109 15.9741 7.18111L17.25 5.64094L18.5259 4.10076C17.9511 3.62459 17.3259 3.21274 16.6615 2.87257L15.75 4.65281ZM17.25 5.64094H15.25V18.3591H17.25H19.25V5.64094H17.25ZM17.25 18.3591L15.9741 16.8189C15.624 17.1089 15.2432 17.3598 14.8386 17.5669L15.75 19.3472L16.6615 21.1274C17.3259 20.7873 17.9511 20.3754 18.5259 19.8992L17.25 18.3591ZM15.75 19.3472H17.75V4.65281H15.75H13.75V19.3472H15.75ZM3.75 12L5.75 12.0024C5.75188 10.4431 6.33559 8.94066 7.3869 7.78909L5.90984 6.44064L4.43279 5.09219C2.70975 6.97956 1.75308 9.44201 1.75001 11.9976L3.75 12ZM5.90984 6.44064L7.3869 7.78909C8.4382 6.63751 9.88142 5.91972 11.4341 5.7762L11.25 3.78469L11.0659 1.79318C8.52118 2.0284 6.15582 3.20482 4.43279 5.09219L5.90984 6.44064ZM11.25 3.78469H9.25V20.2153H11.25H13.25V3.78469H11.25ZM11.25 20.2153L11.4341 18.2238C9.88142 18.0803 8.4382 17.3625 7.3869 16.2109L5.90984 17.5594L4.43279 18.9078C6.15582 20.7952 8.52118 21.9716 11.0659 22.2068L11.25 20.2153ZM5.90984 17.5594L7.3869 16.2109C6.33559 15.0593 5.75188 13.5569 5.75 11.9976L3.75 12L1.75001 12.0024C1.75308 14.558 2.70975 17.0204 4.43279 18.9078L5.90984 17.5594ZM18.75 16.7381H20.75V7.26188H18.75H16.75V16.7381H18.75ZM18.75 7.26188L17.1144 8.41287C17.8534 9.46305 18.25 10.7159 18.25 12H20.25H22.25C22.25 9.89177 21.5989 7.835 20.3856 6.11088L18.75 7.26188ZM20.25 12H18.25C18.25 13.2841 17.8534 14.537 17.1144 15.5871L18.75 16.7381L20.3856 17.8891C21.5989 16.165 22.25 14.1082 22.25 12H20.25Z" fill="white" mask="url(#path-1-inside-1_590_297)"/>
</svg>
