<svg width="24" height="24" viewBox="0 0 24 24" fill="none" xmlns="http://www.w3.org/2000/svg">
<mask id="path-1-inside-1_550_794" fill="white">
<path d="M15.936 2.50098L21.501 8.06595V15.936L15.936 21.501H8.06595L2.50098 15.936V8.06595L8.06595 2.50098H15.936ZM15.1076 4.50098H8.89437L4.50098 8.89437V15.1076L8.89437 19.501H15.1076L19.501 15.1076V8.89437L15.1076 4.50098ZM11.0002 15.0002H13.0002V17.0002H11.0002V15.0002ZM11.0002 7.00024H13.0002V13.0002H11.0002V7.00024Z"/>
</mask>
<path d="M15.936 2.50098L21.501 8.06595V15.936L15.936 21.501H8.06595L2.50098 15.936V8.06595L8.06595 2.50098H15.936ZM15.1076 4.50098H8.89437L4.50098 8.89437V15.1076L8.89437 19.501H15.1076L19.501 15.1076V8.89437L15.1076 4.50098ZM11.0002 15.0002H13.0002V17.0002H11.0002V15.0002ZM11.0002 7.00024H13.0002V13.0002H11.0002V7.00024Z" fill="#0A0A0A"/>
<path d="M15.936 2.50098L17.3502 1.08676L16.7644 0.500977H15.936V2.50098ZM21.501 8.06595H23.501V7.23752L22.9152 6.65173L21.501 8.06595ZM21.501 15.936L22.9152 17.3502L23.501 16.7644V15.936H21.501ZM15.936 21.501V23.501H16.7644L17.3502 22.9152L15.936 21.501ZM8.06595 21.501L6.65173 22.9152L7.23752 23.501H8.06595V21.501ZM2.50098 15.936H0.500977V16.7644L1.08676 17.3502L2.50098 15.936ZM2.50098 8.06595L1.08676 6.65173L0.500977 7.23752V8.06595H2.50098ZM8.06595 2.50098V0.500977H7.23752L6.65173 1.08676L8.06595 2.50098ZM15.1076 4.50098L16.5218 3.08676L15.936 2.50098H15.1076V4.50098ZM8.89437 4.50098V2.50098H8.06594L7.48015 3.08676L8.89437 4.50098ZM4.50098 8.89437L3.08676 7.48015L2.50098 8.06594V8.89437H4.50098ZM4.50098 15.1076H2.50098V15.936L3.08676 16.5218L4.50098 15.1076ZM8.89437 19.501L7.48015 20.9152L8.06594 21.501H8.89437V19.501ZM15.1076 19.501V21.501H15.936L16.5218 20.9152L15.1076 19.501ZM19.501 15.1076L20.9152 16.5218L21.501 15.936V15.1076H19.501ZM19.501 8.89437H21.501V8.06594L20.9152 7.48015L19.501 8.89437ZM11.0002 15.0002V13.0002H9.0002V15.0002H11.0002ZM13.0002 15.0002H15.0002V13.0002H13.0002V15.0002ZM13.0002 17.0002V19.0002H15.0002V17.0002H13.0002ZM11.0002 17.0002H9.0002V19.0002H11.0002V17.0002ZM11.0002 7.00024V5.00024H9.0002V7.00024H11.0002ZM13.0002 7.00024H15.0002V5.00024H13.0002V7.00024ZM13.0002 13.0002V15.0002H15.0002V13.0002H13.0002ZM11.0002 13.0002H9.0002V15.0002H11.0002V13.0002ZM15.936 2.50098L14.5218 3.91519L20.0868 9.48016L21.501 8.06595L22.9152 6.65173L17.3502 1.08676L15.936 2.50098ZM21.501 8.06595H19.501V15.936H21.501H23.501V8.06595H21.501ZM21.501 15.936L20.0868 14.5218L14.5218 20.0868L15.936 21.501L17.3502 22.9152L22.9152 17.3502L21.501 15.936ZM15.936 21.501V19.501H8.06595V21.501V23.501H15.936V21.501ZM8.06595 21.501L9.48016 20.0868L3.91519 14.5218L2.50098 15.936L1.08676 17.3502L6.65173 22.9152L8.06595 21.501ZM2.50098 15.936H4.50098V8.06595H2.50098H0.500977V15.936H2.50098ZM2.50098 8.06595L3.91519 9.48016L9.48016 3.91519L8.06595 2.50098L6.65173 1.08676L1.08676 6.65173L2.50098 8.06595ZM8.06595 2.50098V4.50098H15.936V2.50098V0.500977H8.06595V2.50098ZM15.1076 4.50098V2.50098H8.89437V4.50098V6.50098H15.1076V4.50098ZM8.89437 4.50098L7.48015 3.08676L3.08676 7.48015L4.50098 8.89437L5.91519 10.3086L10.3086 5.91519L8.89437 4.50098ZM4.50098 8.89437H2.50098V15.1076H4.50098H6.50098V8.89437H4.50098ZM4.50098 15.1076L3.08676 16.5218L7.48015 20.9152L8.89437 19.501L10.3086 18.0868L5.91519 13.6934L4.50098 15.1076ZM8.89437 19.501V21.501H15.1076V19.501V17.501H8.89437V19.501ZM15.1076 19.501L16.5218 20.9152L20.9152 16.5218L19.501 15.1076L18.0868 13.6934L13.6934 18.0868L15.1076 19.501ZM19.501 15.1076H21.501V8.89437H19.501H17.501V15.1076H19.501ZM19.501 8.89437L20.9152 7.48015L16.5218 3.08676L15.1076 4.50098L13.6934 5.91519L18.0868 10.3086L19.501 8.89437ZM11.0002 15.0002V17.0002H13.0002V15.0002V13.0002H11.0002V15.0002ZM13.0002 15.0002H11.0002V17.0002H13.0002H15.0002V15.0002H13.0002ZM13.0002 17.0002V15.0002H11.0002V17.0002V19.0002H13.0002V17.0002ZM11.0002 17.0002H13.0002V15.0002H11.0002H9.0002V17.0002H11.0002ZM11.0002 7.00024V9.00024H13.0002V7.00024V5.00024H11.0002V7.00024ZM13.0002 7.00024H11.0002V13.0002H13.0002H15.0002V7.00024H13.0002ZM13.0002 13.0002V11.0002H11.0002V13.0002V15.0002H13.0002V13.0002ZM11.0002 13.0002H13.0002V7.00024H11.0002H9.0002V13.0002H11.0002Z" fill="#0A0A0A" mask="url(#path-1-inside-1_550_794)"/>
</svg>
