<svg width="24" height="24" viewBox="0 0 24 24" fill="none" xmlns="http://www.w3.org/2000/svg">
<path d="M22.3675 5.95408V6.28477L12.0001 13.1337L1.60889 5.7893C1.67975 4.51397 2.74251 3.52209 4.04128 3.52209H19.9347C21.2809 3.52209 22.3673 4.60828 22.3673 5.95448L22.3675 5.95408Z" fill="black"/>
<path d="M12.472 14.9284L22.3673 8.38695V18.046C22.3673 19.3922 21.2809 20.4784 19.9349 20.4784H4.0649C2.71869 20.4784 1.63251 19.392 1.63251 18.046L1.63232 7.93835L11.5037 14.9288C11.6455 15.0469 11.8344 15.0942 11.9996 15.0942C12.1649 15.0704 12.3303 15.0231 12.472 14.9288L12.472 14.9284Z" fill="black"/>
</svg>
