<svg width="24" height="24" viewBox="0 0 24 24" fill="none" xmlns="http://www.w3.org/2000/svg">
<path d="M12.377 21.9873C12.3587 21.9883 12.3405 21.9903 12.3223 21.9912C12.3405 21.9903 12.3587 21.9883 12.377 21.9873ZM12.7285 21.958C12.6924 21.962 12.6564 21.9663 12.6201 21.9697C12.6564 21.9663 12.6924 21.962 12.7285 21.958ZM13.0273 21.918C12.9997 21.9224 12.9721 21.9266 12.9443 21.9307C12.9721 21.9266 12.9997 21.9224 13.0273 21.918ZM13.3398 21.8604C13.3048 21.8677 13.2696 21.8741 13.2344 21.8809C13.2696 21.8741 13.3048 21.8677 13.3398 21.8604ZM13.9863 21.6895C13.9629 21.697 13.9395 21.7047 13.916 21.7119C13.9395 21.7047 13.9629 21.697 13.9863 21.6895ZM14.2793 21.5869C14.2564 21.5955 14.2339 21.605 14.2109 21.6133C14.2339 21.605 14.2564 21.5955 14.2793 21.5869ZM14.5752 21.4688C14.5451 21.4818 14.5147 21.4943 14.4844 21.5068C14.5147 21.4943 14.5451 21.4818 14.5752 21.4688ZM14.8643 21.335C14.8222 21.3556 14.7799 21.3757 14.7373 21.3955C14.7799 21.3757 14.8222 21.3556 14.8643 21.335ZM15.1152 21.2051C15.0714 21.229 15.0268 21.2514 14.9824 21.2744C15.0268 21.2514 15.0714 21.229 15.1152 21.2051ZM15.6797 20.8564C15.656 20.8728 15.6324 20.8893 15.6084 20.9053C15.6324 20.8892 15.656 20.8728 15.6797 20.8564ZM15.9443 20.6641C15.9122 20.6886 15.8802 20.7133 15.8477 20.7373C15.8802 20.7133 15.9122 20.6886 15.9443 20.6641ZM16.1689 20.4854C16.1343 20.5143 16.0987 20.542 16.0635 20.5703C16.0987 20.542 16.1343 20.5143 16.1689 20.4854ZM16.377 20.3037C16.3652 20.3144 16.3536 20.3253 16.3418 20.3359C16.3536 20.3253 16.3652 20.3144 16.377 20.3037ZM16.8506 19.8242C16.8325 19.8445 16.8143 19.8647 16.7959 19.8848C16.8143 19.8647 16.8325 19.8445 16.8506 19.8242ZM17.0771 19.5566C17.0464 19.5951 17.015 19.6331 16.9834 19.6709C17.015 19.6331 17.0464 19.5951 17.0771 19.5566ZM17.2441 19.3379C17.217 19.3749 17.19 19.4119 17.1621 19.4482C17.19 19.4119 17.217 19.3749 17.2441 19.3379ZM17.4072 19.1055C17.3893 19.1324 17.3709 19.1589 17.3525 19.1855C17.3709 19.1589 17.3893 19.1324 17.4072 19.1055ZM17.7812 18.4717C17.752 18.5284 17.7223 18.5848 17.6914 18.6406C17.7222 18.5848 17.752 18.5284 17.7812 18.4717ZM17.9082 18.2109C17.8849 18.2617 17.8615 18.3123 17.8369 18.3623C17.8615 18.3123 17.8849 18.2617 17.9082 18.2109ZM18.0117 17.9727C17.9957 18.0115 17.9796 18.0504 17.9629 18.0889C17.9796 18.0504 17.9957 18.0115 18.0117 17.9727ZM18.1152 17.7041C18.1018 17.7415 18.0874 17.7784 18.0732 17.8154C18.0874 17.7784 18.1018 17.7415 18.1152 17.7041ZM15.4414 16.4863C15.3595 16.494 15.2793 16.5 15.2002 16.5C15.2806 16.5 15.3609 16.4942 15.4414 16.4863ZM18.4531 14.8867C18.4653 14.9733 18.4751 15.0594 18.4824 15.1455L16.8467 16.0234C16.3465 16.2917 15.9052 16.4335 15.501 16.4805C16.1252 16.405 16.7508 16.1068 17.3447 15.7207C17.6963 15.4922 18.0654 15.2124 18.4531 14.8867ZM5.57715 14.5C5.52656 14.8276 5.5 15.1616 5.5 15.5C5.5 15.1599 5.52686 14.826 5.57715 14.5ZM5.58008 14.4814C5.59535 14.3843 5.61329 14.288 5.63281 14.1924C5.61326 14.2882 5.59534 14.3845 5.58008 14.4814ZM5.63965 14.1553C5.65607 14.0772 5.67514 13.9999 5.69434 13.9229C5.67512 14 5.65605 14.0773 5.63965 14.1553ZM5.81055 13.5078C5.8405 13.4147 5.87324 13.3227 5.90723 13.2314C5.87322 13.3228 5.84043 13.4148 5.81055 13.5078ZM5.91797 13.2002C5.94228 13.1359 5.96982 13.073 5.99609 13.0098C5.96981 13.0731 5.94224 13.136 5.91797 13.2002ZM6.18359 12.5947C6.2193 12.5234 6.25768 12.4536 6.2959 12.3838C6.25765 12.4537 6.21924 12.5235 6.18359 12.5947ZM6.33887 12.3037C6.36823 12.2518 6.39992 12.2014 6.43066 12.1504C6.3999 12.2014 6.3682 12.2519 6.33887 12.3037ZM6.88184 11.4922C6.91112 11.4549 6.9416 11.4185 6.97168 11.3818C6.94157 11.4185 6.9111 11.4549 6.88184 11.4922ZM9.41211 9.01465C9.4063 9.02087 9.39937 9.02603 9.39355 9.03223C9.42231 9.00146 9.45165 8.97091 9.48047 8.93945C9.45765 8.96428 9.43521 8.98991 9.41211 9.01465ZM10.2305 8.03613C10.2023 8.07388 10.1743 8.11188 10.1455 8.14941C10.174 8.11205 10.2022 8.07427 10.2305 8.03613ZM12.0068 3.41992C12.0503 3.45177 12.093 3.48394 12.1357 3.51562L11.7441 4.97559C11.4539 6.0545 10.9611 7.0418 10.2832 7.96582C11.1144 6.8226 11.8299 5.33861 12.0068 3.41992ZM18.2109 17.4189C18.2045 17.4398 18.1981 17.4607 18.1914 17.4814C18.1981 17.4607 18.2045 17.4398 18.2109 17.4189Z" fill="black" stroke="black" stroke-width="2"/>
</svg>
