<svg width="24" height="24" viewBox="0 0 24 24" fill="none" xmlns="http://www.w3.org/2000/svg">
<path d="M6 21.0001L5.99902 20.9991L6.68164 20.545L7.80273 19.798L6 21.0001ZM18 21.0001L17.999 20.9991L18.5791 20.42L19.707 19.2931L18 21.0001ZM9.5 9.00012C9.77613 9.00012 10 9.22399 10 9.50012C10 9.77624 9.77612 10.0001 9.5 10.0001C9.22387 10.0001 9 9.77625 9 9.50012C9 9.22398 9.22385 9.00012 9.5 9.00012ZM14.5 9.00012C14.7761 9.00012 15 9.22399 15 9.50012C15 9.77624 14.7761 10.0001 14.5 10.0001C14.2239 10.0001 14 9.77624 14 9.50012C14 9.22399 14.2239 9.00012 14.5 9.00012Z" fill="#0A0A0A" stroke="#0A0A0A" stroke-width="2"/>
</svg>
