<svg width="24" height="24" viewBox="0 0 24 24" fill="none" xmlns="http://www.w3.org/2000/svg">
<path d="M11.5786 1.31738C11.4932 1.38401 11.4144 1.45872 11.3452 1.54199C11.4144 1.45876 11.4932 1.38399 11.5786 1.31738ZM11.5786 1.31738C11.6004 1.30037 11.6223 1.28338 11.645 1.26758C11.6223 1.28339 11.6004 1.30037 11.5786 1.31738ZM12.9604 1.07227C12.9992 1.08476 13.0373 1.09876 13.0747 1.11426C13.0374 1.09875 12.9993 1.08477 12.9604 1.07227ZM12.9604 1.07227C12.9561 1.07088 12.9521 1.06873 12.9478 1.06738C12.9521 1.06873 12.9561 1.07088 12.9604 1.07227ZM12.5005 1C12.5463 1.00001 12.5915 1.00281 12.6362 1.00684L12.5005 1ZM12.5005 1C12.4502 1 12.4001 1.002 12.3511 1.00684C12.4001 1.00199 12.4502 1 12.5005 1ZM4.67822 14.1738C4.60185 13.9943 4.53002 13.8227 4.46143 13.6592C4.53002 13.8227 4.60185 13.9943 4.67822 14.1738ZM4.20264 13.0381C4.13688 12.878 4.07627 12.7269 4.01904 12.585C4.07627 12.7269 4.13687 12.878 4.20264 13.0381ZM6.36182 11.0283L8.00049 12.3867V13H7.73682C7.42637 12.1845 6.95491 11.502 6.36182 11.0283ZM3.85498 12.1758C3.80084 12.0386 3.75173 11.9114 3.70654 11.7939C3.75172 11.9114 3.80083 12.0386 3.85498 12.1758ZM18.1938 5.53027C17.5123 5.67162 17.0005 6.27645 17.0005 7V5.77344L18.1938 5.53027ZM13.8979 1.95508L14.2271 2.7959L15.0972 2.55469C15.1073 2.55187 15.1182 2.55046 15.1284 2.54785C14.48 2.71337 14.0005 3.29999 14.0005 4V2.5C14.0005 2.2969 13.9594 2.10341 13.8862 1.92676C13.8901 1.93613 13.8943 1.94561 13.8979 1.95508ZM11.0278 2.21289C11.0098 2.30583 11.0005 2.40179 11.0005 2.5V4.5C11.0005 3.77921 10.4917 3.17748 9.81396 3.0332C9.81745 3.03394 9.82123 3.03439 9.82471 3.03516L10.8413 3.25781L11.0239 2.2334C11.0252 2.22654 11.0265 2.21972 11.0278 2.21289ZM4.58252 10.3135C5.2366 10.3517 5.79879 10.5903 6.27979 10.9658C5.81876 10.6188 5.2895 10.3942 4.7085 10.3281L4.58252 10.3135ZM9.65674 3.00781C9.67816 3.01002 9.69915 3.0145 9.72021 3.01758C9.69911 3.01447 9.67812 3.01003 9.65674 3.00781ZM15.2554 2.52148C15.2764 2.51804 15.2975 2.51428 15.3188 2.51172C15.2975 2.51429 15.2764 2.51802 15.2554 2.52148ZM11.0435 2.14648C11.0506 2.11686 11.058 2.0875 11.0669 2.05859C11.058 2.08749 11.0506 2.11687 11.0435 2.14648ZM11.0776 2.02539C11.0873 1.99636 11.0975 1.96766 11.1089 1.93945C11.0975 1.96765 11.0873 1.99637 11.0776 2.02539ZM13.813 1.77637C13.7691 1.69687 13.7187 1.6216 13.6616 1.55176C13.7187 1.62157 13.769 1.69682 13.813 1.77637ZM11.1333 1.88281C11.1458 1.85527 11.1593 1.82838 11.1733 1.80176C11.1593 1.82838 11.1458 1.85528 11.1333 1.88281ZM11.1909 1.76855C11.2058 1.742 11.2214 1.71595 11.2378 1.69043C11.2214 1.71595 11.2058 1.742 11.1909 1.76855ZM11.2671 1.64648C11.2897 1.61396 11.3134 1.58234 11.3384 1.55176C11.3134 1.58235 11.2896 1.61396 11.2671 1.64648ZM13.5767 1.45605C13.5975 1.47756 13.6176 1.49974 13.6372 1.52246C13.6177 1.49974 13.5975 1.47756 13.5767 1.45605ZM13.4565 1.34473C13.488 1.37077 13.5181 1.39826 13.5474 1.42676C13.5182 1.39826 13.488 1.37078 13.4565 1.34473ZM13.3481 1.2627C13.3831 1.28668 13.417 1.31208 13.4497 1.33887C13.417 1.31208 13.3831 1.28669 13.3481 1.2627ZM13.2368 1.19336C13.2616 1.20733 13.2852 1.22297 13.3091 1.23828C13.2852 1.22296 13.2616 1.20734 13.2368 1.19336ZM11.6948 1.23438C11.7194 1.2187 11.7445 1.20371 11.77 1.18945C11.7445 1.20371 11.7194 1.2187 11.6948 1.23438ZM11.8071 1.16992C11.8382 1.15372 11.8696 1.13807 11.9019 1.12402C11.8696 1.13807 11.8382 1.15372 11.8071 1.16992ZM13.1079 1.12891C13.1357 1.14122 13.1631 1.15405 13.1899 1.16797C13.1631 1.15404 13.1357 1.14123 13.1079 1.12891ZM11.9302 1.1123C11.9615 1.09941 11.9935 1.08794 12.0259 1.07715C11.9935 1.08793 11.9615 1.09941 11.9302 1.1123ZM12.8188 1.03418C12.8555 1.04212 12.8916 1.05192 12.9272 1.0625C12.8916 1.05192 12.8556 1.04212 12.8188 1.03418ZM12.0757 1.06152C12.1002 1.05431 12.1249 1.04797 12.1499 1.04199C12.1249 1.04797 12.1002 1.05431 12.0757 1.06152ZM12.2163 1.02734C12.2495 1.02098 12.283 1.01585 12.3169 1.01172C12.283 1.01585 12.2495 1.02099 12.2163 1.02734ZM12.6772 1.01074C12.7124 1.01488 12.7473 1.01983 12.7817 1.02637C12.7473 1.01983 12.7124 1.01488 12.6772 1.01074ZM13.8218 1.79199C13.8406 1.82707 13.8584 1.86272 13.8745 1.89941C13.8585 1.86273 13.8406 1.82707 13.8218 1.79199Z" fill="#0A0A0A" stroke="#0A0A0A" stroke-width="2"/>
</svg>
