<svg viewBox="0 0 24 24" fill="none" xmlns="http://www.w3.org/2000/svg">
  <path d="M20.317 4.37a19.791 19.791 0 00-4.885-1.515.074.074 0 00-.079.037c-.211.375-.445.865-.608 1.25a18.27 18.27 0 00-5.487 0c-.163-.39-.398-.875-.609-1.25a.077.077 0 00-.079-.037A19.736 19.736 0 003.677 4.37a.07.07 0 00-.032.027C.533 9.046-.32 13.58.099 18.057a.082.082 0 00.031.056 19.9 19.9 0 005.993 3.03.078.078 0 00.084-.028c.462-.63.874-1.295 1.226-1.994a.076.076 0 00-.042-.106 13.107 13.107 0 01-1.872-.892.077.077 0 00-.009-.128c.126-.094.252-.192.372-.291a.074.074 0 00.088-.01c3.928 1.793 8.18 1.793 12.062 0a.074.074 0 00.088.011c.12.099.246.197.372.291a.077.077 0 00-.009.128 12.299 12.299 0 01-1.873.892.076.076 0 00-.041.107c.352.699.763 1.363 1.226 1.993a.076.076 0 00.084.028 19.839 19.839 0 006.002-3.03.077.077 0 00.032-.054c.5-4.786-.838-8.895-3.549-12.562a.06.06 0 00-.031-.03zM8.02 15.33c-1.183 0-2.157-.965-2.157-2.156 0-1.193.93-2.157 2.157-2.157 1.226 0 2.157.964 2.157 2.157 0 1.19-.93 2.156-2.157 2.156zm7.975 0c-1.183 0-2.157-.965-2.157-2.156 0-1.193.93-2.157 2.157-2.157 1.226 0 2.157.964 2.157 2.157 0 1.19-.931 2.156-2.157 2.156z" fill="currentColor"/>
</svg>