<svg width="24" height="24" viewBox="0 0 24 24" fill="none" xmlns="http://www.w3.org/2000/svg">
<mask id="path-1-inside-1_550_753" fill="white">
<path d="M10 6V8H5V19H16V14H18V20C18 20.5523 17.5523 21 17 21H4C3.44772 21 3 20.5523 3 20V7C3 6.44772 3.44772 6 4 6H10ZM21 3V11H19L18.9999 6.413L11.2071 14.2071L9.79289 12.7929L17.5849 5H13V3H21Z"/>
</mask>
<path d="M10 6H12V4H10V6ZM10 8V10H12V8H10ZM5 8V6H3V8H5ZM5 19H3V21H5V19ZM16 19V21H18V19H16ZM16 14V12H14V14H16ZM18 14H20V12H18V14ZM21 3H23V1H21V3ZM21 11V13H23V11H21ZM19 11L17 11L17 13H19V11ZM18.9999 6.413L20.9999 6.41296L20.9998 1.58411L17.5856 4.9989L18.9999 6.413ZM11.2071 14.2071L9.79289 15.6213L11.2072 17.0356L12.6214 15.6212L11.2071 14.2071ZM9.79289 12.7929L8.3786 11.3788L6.96454 12.793L8.37868 14.2071L9.79289 12.7929ZM17.5849 5L18.9992 6.41413L22.4129 3H17.5849V5ZM13 5H11V7H13V5ZM13 3V1H11V3H13ZM10 6H8V8H10H12V6H10ZM10 8V6H5V8V10H10V8ZM5 8H3V19H5H7V8H5ZM5 19V21H16V19V17H5V19ZM16 19H18V14H16H14V19H16ZM16 14V16H18V14V12H16V14ZM18 14H16V20H18H20V14H18ZM18 20H16C16 19.4477 16.4477 19 17 19V21V23C18.6569 23 20 21.6569 20 20H18ZM17 21V19H4V21V23H17V21ZM4 21V19C4.55226 19 5 19.4477 5 20H3H1C1 21.6569 2.34318 23 4 23V21ZM3 20H5V7H3H1V20H3ZM3 7H5C5 7.55229 4.55229 8 4 8V6V4C2.34315 4 1 5.34315 1 7H3ZM4 6V8H10V6V4H4V6ZM21 3H19V11H21H23V3H21ZM21 11V9H19V11V13H21V11ZM19 11L21 11L20.9999 6.41296L18.9999 6.413L16.9999 6.41304L17 11L19 11ZM18.9999 6.413L17.5856 4.9989L9.79277 12.793L11.2071 14.2071L12.6214 15.6212L20.4142 7.8271L18.9999 6.413ZM11.2071 14.2071L12.6213 12.7929L11.2071 11.3787L9.79289 12.7929L8.37868 14.2071L9.79289 15.6213L11.2071 14.2071ZM9.79289 12.7929L11.2072 14.207L18.9992 6.41413L17.5849 5L16.1706 3.58587L8.3786 11.3788L9.79289 12.7929ZM17.5849 5V3H13V5V7H17.5849V5ZM13 5H15V3H13H11V5H13ZM13 3V5H21V3V1H13V3Z" fill="black" mask="url(#path-1-inside-1_550_753)"/>
</svg>
