<svg width="51" height="51" viewBox="0 0 51 51" fill="none" xmlns="http://www.w3.org/2000/svg">
<path d="M23.9062 12.75V4.25C23.9062 3.3698 24.6198 2.65625 25.5 2.65625C26.3802 2.65625 27.0938 3.3698 27.0938 4.25V12.75C27.0938 13.6302 26.3802 14.3438 25.5 14.3438C24.6198 14.3438 23.9062 13.6302 23.9062 12.75Z" fill="url(#paint0_linear_301_2392)"/>
<path d="M39.4619 9.2865C40.0843 8.66452 41.0933 8.66424 41.7156 9.2865C42.3374 9.90879 42.3374 10.9179 41.7156 11.5402L35.5522 17.7035C34.93 18.3253 33.9209 18.3253 33.2986 17.7035C32.6763 17.0812 32.6766 16.0723 33.2986 15.4498L39.4619 9.2865Z" fill="url(#paint1_linear_301_2392)"/>
<path d="M46.75 23.9062C47.6302 23.9062 48.3438 24.6198 48.3438 25.5C48.3438 26.3802 47.6302 27.0938 46.75 27.0938H38.25C37.3698 27.0938 36.6562 26.3802 36.6562 25.5C36.6562 24.6198 37.3698 23.9062 38.25 23.9062H46.75Z" fill="url(#paint2_linear_301_2392)"/>
<path d="M33.2982 33.2982C33.9206 32.6758 34.9294 32.6758 35.5518 33.2982L41.7152 39.4615L41.8231 39.5819C42.3338 40.2078 42.2987 41.1316 41.7152 41.7152C41.1316 42.2987 40.2078 42.3338 39.5819 41.8231L39.4615 41.7152L33.2982 35.5518C32.6758 34.9294 32.6758 33.9206 33.2982 33.2982Z" fill="url(#paint3_linear_301_2392)"/>
<path d="M23.9062 46.75V38.25C23.9062 37.3698 24.6198 36.6562 25.5 36.6562C26.3802 36.6562 27.0938 37.3698 27.0938 38.25V46.75C27.0938 47.6302 26.3802 48.3438 25.5 48.3438C24.6198 48.3438 23.9062 47.6302 23.9062 46.75Z" fill="url(#paint4_linear_301_2392)"/>
<path d="M15.4498 33.2986C16.0723 32.6766 17.0812 32.6763 17.7035 33.2986C18.3253 33.9209 18.3253 34.93 17.7035 35.5522L11.5402 41.7156C10.9179 42.3374 9.90879 42.3374 9.2865 41.7156C8.66424 41.0933 8.66452 40.0843 9.2865 39.4619L15.4498 33.2986Z" fill="url(#paint5_linear_301_2392)"/>
<path d="M12.75 23.9062C13.6302 23.9062 14.3438 24.6198 14.3438 25.5C14.3438 26.3802 13.6302 27.0938 12.75 27.0938H4.25C3.3698 27.0938 2.65625 26.3802 2.65625 25.5C2.65625 24.6198 3.3698 23.9062 4.25 23.9062H12.75Z" fill="url(#paint6_linear_301_2392)"/>
<path d="M9.2865 9.2865C9.9089 8.6641 10.9178 8.6641 11.5402 9.2865L17.7035 15.4498L17.8114 15.5702C18.3222 16.1962 18.2871 17.1199 17.7035 17.7035C17.1199 18.2871 16.1962 18.3222 15.5702 17.8114L15.4498 17.7035L9.2865 11.5402C8.6641 10.9178 8.6641 9.9089 9.2865 9.2865Z" fill="url(#paint7_linear_301_2392)"/>
<defs>
<linearGradient id="paint0_linear_301_2392" x1="25.5" y1="2.65625" x2="25.5" y2="48.3438" gradientUnits="userSpaceOnUse">
<stop stop-color="#00A2ED"/>
<stop offset="0.5" stop-color="#6AAC0E"/>
<stop offset="0.75" stop-color="#FEA60F"/>
<stop offset="0.875" stop-color="#F04E1F"/>
</linearGradient>
<linearGradient id="paint1_linear_301_2392" x1="25.5" y1="2.65625" x2="25.5" y2="48.3438" gradientUnits="userSpaceOnUse">
<stop stop-color="#00A2ED"/>
<stop offset="0.5" stop-color="#6AAC0E"/>
<stop offset="0.75" stop-color="#FEA60F"/>
<stop offset="0.875" stop-color="#F04E1F"/>
</linearGradient>
<linearGradient id="paint2_linear_301_2392" x1="25.5" y1="2.65625" x2="25.5" y2="48.3438" gradientUnits="userSpaceOnUse">
<stop stop-color="#00A2ED"/>
<stop offset="0.5" stop-color="#6AAC0E"/>
<stop offset="0.75" stop-color="#FEA60F"/>
<stop offset="0.875" stop-color="#F04E1F"/>
</linearGradient>
<linearGradient id="paint3_linear_301_2392" x1="25.5" y1="2.65625" x2="25.5" y2="48.3438" gradientUnits="userSpaceOnUse">
<stop stop-color="#00A2ED"/>
<stop offset="0.5" stop-color="#6AAC0E"/>
<stop offset="0.75" stop-color="#FEA60F"/>
<stop offset="0.875" stop-color="#F04E1F"/>
</linearGradient>
<linearGradient id="paint4_linear_301_2392" x1="25.5" y1="2.65625" x2="25.5" y2="48.3438" gradientUnits="userSpaceOnUse">
<stop stop-color="#00A2ED"/>
<stop offset="0.5" stop-color="#6AAC0E"/>
<stop offset="0.75" stop-color="#FEA60F"/>
<stop offset="0.875" stop-color="#F04E1F"/>
</linearGradient>
<linearGradient id="paint5_linear_301_2392" x1="25.5" y1="2.65625" x2="25.5" y2="48.3438" gradientUnits="userSpaceOnUse">
<stop stop-color="#00A2ED"/>
<stop offset="0.5" stop-color="#6AAC0E"/>
<stop offset="0.75" stop-color="#FEA60F"/>
<stop offset="0.875" stop-color="#F04E1F"/>
</linearGradient>
<linearGradient id="paint6_linear_301_2392" x1="25.5" y1="2.65625" x2="25.5" y2="48.3438" gradientUnits="userSpaceOnUse">
<stop stop-color="#00A2ED"/>
<stop offset="0.5" stop-color="#6AAC0E"/>
<stop offset="0.75" stop-color="#FEA60F"/>
<stop offset="0.875" stop-color="#F04E1F"/>
</linearGradient>
<linearGradient id="paint7_linear_301_2392" x1="25.5" y1="2.65625" x2="25.5" y2="48.3438" gradientUnits="userSpaceOnUse">
<stop stop-color="#00A2ED"/>
<stop offset="0.5" stop-color="#6AAC0E"/>
<stop offset="0.75" stop-color="#FEA60F"/>
<stop offset="0.875" stop-color="#F04E1F"/>
</linearGradient>
</defs>
</svg>
