<svg width="24" height="24" viewBox="0 0 24 24" fill="none" xmlns="http://www.w3.org/2000/svg">
<path d="M13.1572 16.916C12.9074 16.8425 12.6624 16.7745 12.4248 16.7109C12.6623 16.7745 12.9074 16.8425 13.1572 16.916ZM13.1572 16.916C13.3988 16.9871 13.6481 17.0648 13.9033 17.1475C13.6488 17.0651 13.3996 16.9873 13.1572 16.916ZM13.1572 7.08398C13.3989 7.0129 13.648 6.93421 13.9033 6.85156C13.6487 6.934 13.3997 7.01268 13.1572 7.08398ZM13.1572 7.08398C12.9075 7.15744 12.6623 7.22451 12.4248 7.28809C12.6623 7.22451 12.9074 7.15745 13.1572 7.08398ZM18.4355 19.251L19.5293 20H19.3965C19.0753 19.7126 18.7245 19.4455 18.3535 19.1963C18.3807 19.2145 18.4086 19.2325 18.4355 19.251ZM17.9668 18.9482C18.0383 18.9923 18.1094 19.0366 18.1797 19.082C18.1094 19.0367 18.0383 18.9923 17.9668 18.9482ZM17.4639 18.6514C17.59 18.7217 17.7146 18.7942 17.8379 18.8682C17.7147 18.7942 17.5901 18.7217 17.4639 18.6514ZM16.7012 18.2549C16.7793 18.2929 16.857 18.3318 16.9346 18.3711C16.857 18.3318 16.7793 18.2929 16.7012 18.2549ZM16.4062 18.1152C16.4509 18.1359 16.4955 18.1566 16.54 18.1777C16.4955 18.1567 16.4509 18.1359 16.4062 18.1152ZM15.751 17.8262C15.8052 17.8489 15.8589 17.8732 15.9131 17.8965C15.8589 17.8732 15.8052 17.8489 15.751 17.8262ZM15.0449 17.5459C15.0908 17.5632 15.1366 17.5809 15.1826 17.5986C15.1367 17.5809 15.0908 17.5632 15.0449 17.5459ZM14.4463 17.3281C14.4705 17.3365 14.4943 17.346 14.5186 17.3545C14.4836 17.3422 14.4489 17.3295 14.4141 17.3174L14.4463 17.3281ZM11.7383 16.5352C11.8715 16.5678 12.008 16.6026 12.1475 16.6387C12.008 16.6026 11.8715 16.5678 11.7383 16.5352ZM11.0205 16.3672C11.1662 16.3995 11.3181 16.4345 11.4756 16.4717C11.3181 16.4345 11.1662 16.3995 11.0205 16.3672ZM10 16V16.1475L10.79 16.3164C10.8203 16.3229 10.8509 16.3302 10.8818 16.3369C10.6869 16.2945 10.5046 16.2562 10.3369 16.2227C9.97427 16.1501 9.67886 16.0972 9.47266 16.0625C9.36952 16.0451 9.2885 16.0321 9.23242 16.0234C9.20442 16.0191 9.18226 16.0159 9.16699 16.0137C9.15952 16.0126 9.15368 16.0114 9.14941 16.0107C9.1475 16.0105 9.14579 16.0109 9.14453 16.0107L9.14258 16.0098H9.1416L9.07324 16H10ZM20 10.8379L20.751 11.0312C21.1824 11.1423 21.5 11.5355 21.5 12C21.5 12.4645 21.1824 12.8577 20.751 12.9688L20 13.1621V10.8379ZM10.79 7.68359L10 7.85254V8H9.07129L9.1416 7.99023H9.14258L9.14453 7.98926C9.14579 7.98908 9.1475 7.98954 9.14941 7.98926C9.15368 7.98864 9.15952 7.98744 9.16699 7.98633C9.18226 7.98406 9.20442 7.9809 9.23242 7.97656C9.2885 7.96787 9.36952 7.95486 9.47266 7.9375C9.67886 7.90279 9.97427 7.84987 10.3369 7.77734C10.5047 7.74379 10.6868 7.70452 10.8818 7.66211C10.8509 7.66884 10.8204 7.67709 10.79 7.68359ZM11.4756 7.52734C11.3181 7.56455 11.1662 7.59952 11.0205 7.63184C11.1662 7.59952 11.3181 7.56456 11.4756 7.52734ZM12.1514 7.35938C12.0105 7.39577 11.8728 7.43095 11.7383 7.46387C11.8728 7.43095 12.0105 7.39578 12.1514 7.35938ZM14.5186 6.64453C14.4836 6.65681 14.4489 6.66958 14.4141 6.68164C14.4489 6.66957 14.4836 6.65682 14.5186 6.64453ZM15.1826 6.40039C15.1366 6.4181 15.0908 6.4358 15.0449 6.45312C15.0908 6.43579 15.1367 6.4181 15.1826 6.40039ZM15.9131 6.10254C15.8589 6.1258 15.8052 6.15014 15.751 6.17285C15.8052 6.15014 15.8589 6.12579 15.9131 6.10254ZM16.54 5.82129C16.4955 5.84238 16.4509 5.86309 16.4062 5.88379C16.4509 5.8631 16.4955 5.84237 16.54 5.82129ZM16.9346 5.62793C16.8644 5.66347 16.7943 5.69889 16.7236 5.7334C16.7943 5.6989 16.8644 5.66344 16.9346 5.62793ZM18.1924 4.90918C18.118 4.95735 18.0425 5.00406 17.9668 5.05078C18.0426 5.00405 18.118 4.95733 18.1924 4.90918ZM19.5293 4L18.4355 4.74902C18.4088 4.76736 18.3805 4.7846 18.3535 4.80273C18.7243 4.5536 19.0755 4.28727 19.3965 4H19.5293ZM8 21H7.81934L6.98047 16.8037L6.81934 16H8V21ZM17.083 18.4473C17.1962 18.5061 17.3085 18.5663 17.4199 18.6279C17.3086 18.5664 17.1962 18.5061 17.083 18.4473ZM17.4277 5.36719C17.317 5.42853 17.2052 5.48828 17.0928 5.54688C17.2053 5.48828 17.3171 5.42847 17.4277 5.36719Z" fill="#0A0A0A" stroke="#0A0A0A" stroke-width="2"/>
</svg>
