<svg width="24" height="24" viewBox="0 0 24 24" fill="none" xmlns="http://www.w3.org/2000/svg">
<path d="M11.7646 18.9619C11.6833 18.9696 11.6016 18.9752 11.5195 18.9805C11.6016 18.9752 11.6833 18.9696 11.7646 18.9619ZM12.1426 18.917C12.0529 18.9298 11.9627 18.9404 11.8721 18.9502C11.9627 18.9404 12.0529 18.9298 12.1426 18.917ZM12.4902 18.8594C12.4151 18.8735 12.3396 18.8864 12.2637 18.8984C12.3396 18.8864 12.4151 18.8735 12.4902 18.8594ZM12.8398 18.7852C12.7802 18.7992 12.7203 18.8125 12.6602 18.8252C12.7203 18.8125 12.7802 18.7992 12.8398 18.7852ZM13.1807 18.6963C13.1222 18.7128 13.0639 18.7299 13.0049 18.7451C13.0639 18.7299 13.1222 18.7128 13.1807 18.6963ZM14.0312 18.4043C13.976 18.427 13.9201 18.4483 13.8643 18.4697C13.9202 18.4483 13.976 18.4269 14.0312 18.4043ZM14.3457 18.2666C14.2873 18.2936 14.2281 18.3191 14.1689 18.3447C14.2282 18.3192 14.2872 18.2936 14.3457 18.2666ZM14.6631 18.1113C14.6142 18.1366 14.5651 18.1613 14.5156 18.1855C14.5651 18.1613 14.6142 18.1365 14.6631 18.1113ZM14.9482 17.957C14.9172 17.9747 14.8858 17.9915 14.8545 18.0088C14.8858 17.9916 14.9172 17.9747 14.9482 17.957ZM15.209 17.8018C15.1957 17.81 15.1823 17.818 15.1689 17.8262C15.1823 17.818 15.1957 17.81 15.209 17.8018ZM16.6914 16.6914L16.0703 17.1875C16.2432 17.0457 16.411 16.8977 16.5713 16.7422L16.7422 16.5713C16.8982 16.4105 17.0463 16.2418 17.1885 16.0684L16.6914 16.6914ZM17.8281 15.168C17.8239 15.1748 17.8196 15.1816 17.8154 15.1885C17.8196 15.1816 17.8239 15.1748 17.8281 15.168ZM18.0137 14.8477C17.9951 14.8814 17.9761 14.9148 17.957 14.9482C17.976 14.9148 17.9951 14.8814 18.0137 14.8477ZM18.1855 14.5156C18.1613 14.5651 18.1366 14.6142 18.1113 14.6631C18.1365 14.6142 18.1613 14.5651 18.1855 14.5156ZM18.3691 14.1143C18.3375 14.189 18.3053 14.2634 18.2715 14.3369C18.3053 14.2633 18.3375 14.189 18.3691 14.1143ZM18.4873 13.8174C18.4608 13.8877 18.4347 13.958 18.4062 14.0273C18.4346 13.958 18.4608 13.8877 18.4873 13.8174ZM18.7471 13C18.7342 13.0498 18.7198 13.099 18.7061 13.1484C18.7198 13.099 18.7343 13.0498 18.7471 13ZM18.8252 12.6602C18.8125 12.7203 18.7992 12.7802 18.7852 12.8398C18.7992 12.7802 18.8125 12.7203 18.8252 12.6602ZM18.8984 12.2637C18.8874 12.3333 18.8761 12.4027 18.8633 12.4717C18.8761 12.4027 18.8874 12.3333 18.8984 12.2637ZM18.9502 11.8721C18.9404 11.9627 18.9298 12.0529 18.917 12.1426C18.9298 12.0529 18.9404 11.9627 18.9502 11.8721ZM18.9854 11.4629C18.9796 11.564 18.9714 11.6646 18.9619 11.7646C18.9714 11.6646 18.9796 11.564 18.9854 11.4629ZM19 11C19 11.1208 18.9965 11.2409 18.9912 11.3604C18.9965 11.2409 19 11.1208 19 11ZM3.04102 10.1816C3.04428 10.1496 3.05007 10.1179 3.05371 10.0859C3.05008 10.1179 3.04427 10.1496 3.04102 10.1816Z" fill="#0A0A0A" stroke="#0A0A0A" stroke-width="2"/>
</svg>
