<svg width="24" height="24" viewBox="0 0 24 24" fill="none" xmlns="http://www.w3.org/2000/svg">
<path d="M8.46777 14.1201C8.4093 14.2298 8.35588 14.3426 8.30762 14.458M8.46777 14.1201C8.40929 14.2298 8.35588 14.3426 8.30762 14.458M8.46777 14.1201C8.48948 14.0794 8.51308 14.0398 8.53613 14C8.51309 14.0398 8.48947 14.0794 8.46777 14.1201ZM8.30762 14.458C8.29032 14.4994 8.2757 14.5419 8.25977 14.584C8.2757 14.5419 8.29031 14.4994 8.30762 14.458ZM13.54 12.3076C13.5841 12.326 13.6277 12.3453 13.6709 12.3652C13.6277 12.3453 13.5841 12.326 13.54 12.3076ZM13.54 12.3076C13.5023 12.2919 13.4641 12.2773 13.4258 12.2627C13.4641 12.2773 13.5023 12.2919 13.54 12.3076ZM15.9629 15.4668C15.9861 15.6413 16 15.8191 16 16C16 15.8191 15.9861 15.6413 15.9629 15.4668ZM20.9658 17.1025C20.9739 17.1533 20.9823 17.2042 20.9873 17.2559C20.9823 17.2042 20.9739 17.1533 20.9658 17.1025ZM3.04883 17.0088C3.05539 16.9758 3.06442 16.9436 3.07227 16.9111C3.06441 16.9436 3.0554 16.9758 3.04883 17.0088ZM20.9326 16.9336C20.9383 16.958 20.9453 16.9821 20.9502 17.0068C20.9453 16.9821 20.9383 16.958 20.9326 16.9336ZM3.10645 16.7764C3.11743 16.74 3.13098 16.7046 3.14355 16.6689C3.13098 16.7046 3.11743 16.74 3.10645 16.7764ZM20.8613 16.6855C20.8714 16.7148 20.8826 16.7437 20.8916 16.7734C20.8826 16.7437 20.8714 16.7148 20.8613 16.6855ZM3.18457 16.5586C3.19966 16.5215 3.2166 16.4854 3.2334 16.4492C3.21661 16.4854 3.19966 16.5215 3.18457 16.5586ZM20.7705 16.459C20.7848 16.4901 20.7995 16.521 20.8125 16.5527C20.7995 16.521 20.7848 16.4901 20.7705 16.459ZM3.28516 16.3408C3.30327 16.3063 3.32312 16.2728 3.34277 16.2393C3.32312 16.2728 3.30326 16.3063 3.28516 16.3408ZM20.6641 16.2529C20.6796 16.2798 20.6954 16.3065 20.71 16.334C20.6954 16.3065 20.6796 16.2798 20.6641 16.2529ZM3.40234 16.1416C3.42351 16.109 3.44612 16.0774 3.46875 16.0459C3.44613 16.0775 3.42351 16.109 3.40234 16.1416ZM20.5332 16.0488C20.5536 16.0774 20.5735 16.1063 20.5928 16.1357C20.5735 16.1063 20.5536 16.0774 20.5332 16.0488ZM3.54395 15.9453C3.56512 15.9187 3.58715 15.8929 3.60938 15.8672C3.58716 15.8929 3.56512 15.9187 3.54395 15.9453ZM20.3965 15.875C20.4156 15.8973 20.4348 15.9194 20.4531 15.9424C20.4348 15.9194 20.4156 15.8973 20.3965 15.875ZM8.00684 15.7656L8.00586 15.7803V15.7949L8.00391 15.8525C8.00517 15.8176 8.00663 15.7828 8.00879 15.748C8.00842 15.7539 8.00718 15.7597 8.00684 15.7656ZM3.69629 15.7705C3.71909 15.7467 3.74289 15.724 3.7666 15.7012C3.74289 15.724 3.71908 15.7467 3.69629 15.7705ZM20.2227 15.6914C20.2482 15.7157 20.2734 15.7403 20.2979 15.7656C20.2734 15.7403 20.2482 15.7157 20.2227 15.6914ZM8.01855 15.6152C8.01955 15.6048 8.01944 15.5944 8.02051 15.584C8.01944 15.5944 8.01955 15.6048 8.01855 15.6152ZM20.0537 15.5439C20.0803 15.5651 20.1061 15.5872 20.1318 15.6094C20.1061 15.5872 20.0803 15.5651 20.0537 15.5439ZM3.875 15.6025C3.89728 15.5834 3.91943 15.5642 3.94238 15.5459C3.91943 15.5642 3.89728 15.5834 3.875 15.6025ZM19.8574 15.4023C19.8901 15.4235 19.9216 15.4461 19.9531 15.4688C19.9216 15.4461 19.8901 15.4235 19.8574 15.4023ZM4.0498 15.4658C4.07817 15.4456 4.10651 15.4253 4.13574 15.4062C4.10651 15.4253 4.07817 15.4456 4.0498 15.4658ZM19.6582 15.2852C19.6928 15.3033 19.7262 15.3231 19.7598 15.3428C19.7262 15.3231 19.6928 15.3033 19.6582 15.2852ZM4.25293 15.335C4.27981 15.3194 4.30649 15.3036 4.33398 15.2891C4.30649 15.3036 4.27981 15.3194 4.25293 15.335ZM8.12598 15C8.10062 15.0985 8.07942 15.1985 8.06152 15.2998C8.07941 15.1985 8.10063 15.0985 8.12598 15ZM19.4404 15.1846C19.4775 15.1997 19.5136 15.2166 19.5498 15.2334C19.5136 15.2166 19.4775 15.1996 19.4404 15.1846ZM4.46191 15.2266C4.49197 15.2128 4.52206 15.1991 4.55273 15.1865C4.52205 15.1991 4.49197 15.2128 4.46191 15.2266ZM19.2227 15.1064C19.259 15.1174 19.2944 15.131 19.3301 15.1436C19.2944 15.131 19.259 15.1174 19.2227 15.1064ZM4.68555 15.1377C4.71479 15.1276 4.74371 15.1164 4.77344 15.1074C4.74371 15.1164 4.71479 15.1276 4.68555 15.1377ZM18.9873 15.0479C19.0213 15.0546 19.0544 15.0642 19.0879 15.0723C19.0544 15.0642 19.0213 15.0546 18.9873 15.0479ZM4.93359 15.0664C4.958 15.0607 4.98216 15.0538 5.00684 15.0488C4.98216 15.0538 4.958 15.0607 4.93359 15.0664ZM15.8584 14.9473C15.8639 14.9675 15.8708 14.9874 15.876 15.0078C15.8708 14.9874 15.8639 14.9675 15.8584 14.9473ZM15.7285 14.5518C15.7396 14.5803 15.7503 14.6089 15.7607 14.6377C15.7503 14.6089 15.7396 14.5803 15.7285 14.5518ZM15.6543 14.374C15.665 14.3981 15.6763 14.422 15.6865 14.4463C15.6763 14.422 15.665 14.3981 15.6543 14.374ZM15.5762 14.209C15.5912 14.239 15.6058 14.2693 15.6201 14.2998C15.6058 14.2693 15.5912 14.239 15.5762 14.209ZM15.4883 14.043C15.5025 14.0682 15.5166 14.0935 15.5303 14.1191C15.5166 14.0935 15.5025 14.0682 15.4883 14.043ZM15.3975 13.8896C15.4107 13.911 15.4236 13.9325 15.4365 13.9541C15.4236 13.9325 15.4107 13.911 15.3975 13.8896ZM8.56641 13.9473C8.58076 13.9233 8.59551 13.8996 8.61035 13.876C8.59551 13.8996 8.58076 13.9233 8.56641 13.9473ZM15.2891 13.7246C15.3015 13.7425 15.3141 13.7602 15.3262 13.7783C15.3141 13.7602 15.3015 13.7425 15.2891 13.7246ZM15.1729 13.5654C15.1917 13.5899 15.2102 13.6147 15.2285 13.6396C15.2102 13.6147 15.1917 13.5899 15.1729 13.5654ZM8.78125 13.625C8.80181 13.5972 8.82347 13.5702 8.84473 13.543C8.82347 13.5702 8.80181 13.5972 8.78125 13.625ZM15.0449 13.4072C15.0691 13.4356 15.0929 13.4642 15.1162 13.4932C15.0929 13.4642 15.0691 13.4356 15.0449 13.4072ZM8.89844 13.4736C8.91683 13.4511 8.93621 13.4294 8.95508 13.4072C8.93621 13.4294 8.91683 13.4511 8.89844 13.4736ZM14.9385 13.2871C14.954 13.3039 14.9692 13.3209 14.9844 13.3379C14.9692 13.3209 14.954 13.3039 14.9385 13.2871ZM9.02539 13.3262C9.04141 13.3084 9.05788 13.291 9.07422 13.2734C9.05788 13.291 9.04141 13.3084 9.02539 13.3262ZM9.29199 13.0566C9.31286 13.0374 9.3342 13.0188 9.35547 13C9.3342 13.0188 9.31286 13.0374 9.29199 13.0566ZM14.6719 13.0234C14.684 13.0344 14.696 13.0456 14.708 13.0566C14.696 13.0456 14.684 13.0344 14.6719 13.0234ZM9.42285 12.9404C9.44656 12.9204 9.47095 12.9013 9.49512 12.8818C9.47095 12.9013 9.44655 12.9204 9.42285 12.9404ZM14.5254 12.8984C14.5419 12.9119 14.558 12.9258 14.5742 12.9395C14.558 12.9258 14.5419 12.9119 14.5254 12.8984ZM9.56543 12.8271C9.59046 12.8079 9.61513 12.7882 9.64062 12.7695C9.61513 12.7882 9.59046 12.8079 9.56543 12.8271ZM14.374 12.7812C14.3944 12.7963 14.4145 12.8117 14.4346 12.8271C14.4145 12.8117 14.3944 12.7963 14.374 12.7812ZM9.74316 12.6982C9.75628 12.6893 9.769 12.6797 9.78223 12.6709C9.769 12.6797 9.75628 12.6893 9.74316 12.6982ZM14.2275 12.6777C14.2374 12.6844 14.247 12.6915 14.2568 12.6982C14.247 12.6915 14.2374 12.6844 14.2275 12.6777ZM14.0518 12.5664C14.0757 12.5808 14.0994 12.5955 14.123 12.6104C14.0994 12.5955 14.0757 12.5808 14.0518 12.5664ZM9.90332 12.5938C9.92308 12.5816 9.9429 12.5695 9.96289 12.5576C9.9429 12.5695 9.92308 12.5816 9.90332 12.5938ZM13.8799 12.4688C13.9181 12.4891 13.9557 12.5106 13.9932 12.5322C13.9557 12.5106 13.9181 12.4891 13.8799 12.4688ZM10.0479 12.5078C10.0743 12.493 10.1012 12.4791 10.1279 12.4648C10.1012 12.4791 10.0743 12.493 10.0479 12.5078ZM10.209 12.4229C10.239 12.4078 10.2693 12.3932 10.2998 12.3789C10.2693 12.3932 10.239 12.4078 10.209 12.4229ZM10.3867 12.3389C10.4119 12.3277 10.4374 12.3173 10.4629 12.3066C10.4374 12.3173 10.4119 12.3277 10.3867 12.3389ZM10.5859 12.2578C10.6051 12.2506 10.6243 12.2433 10.6436 12.2363C10.6243 12.2433 10.6051 12.2506 10.5859 12.2578ZM13 12.126C12.9012 12.1005 12.8008 12.0794 12.6992 12.0615C12.8008 12.0794 12.9012 12.1005 13 12.126ZM10.7266 12.208C10.7649 12.1952 10.803 12.1816 10.8418 12.1699C10.803 12.1816 10.7649 12.1952 10.7266 12.208ZM10.9033 12.1523C10.9399 12.1419 10.9766 12.1315 11.0137 12.1221C10.9766 12.1315 10.9399 12.1419 10.9033 12.1523ZM11.1572 12.0889C11.1716 12.0858 11.1858 12.082 11.2002 12.0791C11.1858 12.082 11.1716 12.0858 11.1572 12.0889ZM11.3184 12.0586C11.3479 12.0535 11.3774 12.0474 11.4072 12.043C11.3774 12.0474 11.3479 12.0535 11.3184 12.0586ZM12.5732 12.041C12.5862 12.0429 12.5993 12.0439 12.6123 12.0459C12.5994 12.0439 12.5862 12.0429 12.5732 12.041ZM12 12C11.8128 12 11.6286 12.0132 11.4482 12.0381C11.6286 12.0132 11.8128 12 12 12ZM12.3076 12.0127C12.3435 12.0154 12.3794 12.0168 12.415 12.0205C12.3794 12.0168 12.3435 12.0154 12.3076 12.0127ZM12.2061 12.0049L12.2051 12.0059L12.1006 12.002C12.1358 12.0028 12.171 12.0031 12.2061 12.0049ZM15.9316 15.2627C15.9406 15.3106 15.9489 15.3587 15.9561 15.4072C15.9489 15.3587 15.9406 15.3106 15.9316 15.2627ZM8.17773 14.8164C8.19035 14.7756 8.20487 14.7355 8.21875 14.6953C8.20488 14.7355 8.19035 14.7756 8.17773 14.8164ZM15.7812 14.6953C15.798 14.7438 15.8142 14.7925 15.8291 14.8418C15.8142 14.7925 15.798 14.7438 15.7812 14.6953ZM13.7139 12.3848C13.7594 12.4064 13.804 12.4298 13.8486 12.4531C13.804 12.4298 13.7594 12.4064 13.7139 12.3848ZM13.1826 12.1777C13.2217 12.1898 13.2602 12.2035 13.2988 12.2168C13.2602 12.2036 13.2217 12.1898 13.1826 12.1777Z" stroke="black" stroke-width="2"/>
</svg>
