<svg width="24" height="24" viewBox="0 0 24 24" fill="none" xmlns="http://www.w3.org/2000/svg">
<path d="M8.84277 16.1465L2.18848 22.8018C2.03688 22.9533 1.79125 22.9533 1.63965 22.8018C1.50177 22.6637 1.48905 22.4471 1.60254 22.2959L1.65918 22.2334L8.29395 15.5977L8.84277 16.1465ZM5.39746 1.03809C6.19888 1.15053 6.97128 1.51438 7.58691 2.12988C8.82161 3.36456 9.04621 5.23038 8.25488 6.69336L7.90039 7.34961L8.42676 7.87598L22.5859 22.0361L22.0371 22.5859L7.35059 7.89941L6.69434 8.25391C5.23117 9.04596 3.36488 8.82194 2.12988 7.58691C1.51438 6.97128 1.15053 6.19888 1.03809 5.39746L2.67871 7.03809C3.88242 8.24178 5.83438 8.2418 7.03809 7.03809C8.24179 5.83437 8.24181 3.88242 7.03809 2.67871H7.03711L5.39746 1.03809ZM22.7588 2.57715L20.8955 5.93164L18.8955 6.33203L18.5986 6.3916L18.3848 6.60547L16.1465 8.84277L15.5977 8.29395L17.8359 6.05664L18.0498 5.84277L18.1094 5.5459L18.5098 3.54395L21.8633 1.68164L22.7588 2.57715Z" fill="black" stroke="#0A0A0A" stroke-width="2"/>
</svg>
